<?xml version="1.0" encoding="UTF-8"?>
<svg id="_レイヤー_1" xmlns="http://www.w3.org/2000/svg" width="841.8898315" height="568.7597046" xmlns:xlink="http://www.w3.org/1999/xlink" version="1.1" viewBox="0 0 841.8898315 568.7597046">
  <!-- Generator: Adobe Illustrator 29.4.0, SVG Export Plug-In . SVG Version: 2.1.0 Build 152)  -->
  <defs>
    <style>
      .st0 {
        fill: url(#_名称未設定グラデーション_6);
      }

      .st1 {
        fill: url(#_名称未設定グラデーション_5);
      }

      .st2 {
        fill: #fff;
      }
    </style>
    <radialGradient id="_名称未設定グラデーション_6" data-name="名称未設定グラデーション 6" cx="165.1665965" cy="1589.2003479" fx="165.1665965" fy="1589.2003479" r="165.1525593" gradientTransform="translate(0 -1350.7244263)" gradientUnits="userSpaceOnUse">
      <stop offset="0" stop-color="#fff"/>
      <stop offset="1" stop-color="#fff" stop-opacity="0"/>
    </radialGradient>
    <radialGradient id="_名称未設定グラデーション_5" data-name="名称未設定グラデーション 5" cx="165.1665989" cy="403.5999222" fx="165.1665989" fy="403.5999222" r="165.1600109" gradientUnits="userSpaceOnUse">
      <stop offset="0" stop-color="#fff"/>
      <stop offset=".0849282" stop-color="#fff" stop-opacity=".9657057"/>
      <stop offset=".2221564" stop-color="#fff" stop-opacity=".8722386"/>
      <stop offset=".3945691" stop-color="#fff" stop-opacity=".7197139"/>
      <stop offset=".5953549" stop-color="#fff" stop-opacity=".5080147"/>
      <stop offset=".817163" stop-color="#fff" stop-opacity=".2413156"/>
      <stop offset="1" stop-color="#fff" stop-opacity="0"/>
    </radialGradient>
  </defs>
  <g>
    <path class="st0" d="M165.1665989,238.475769c61.1194153,0,114.4431,33.2260742,143.0031281,82.5760193,14.0597839-24.2975159,22.1498108-52.4837646,22.1498108-82.5760193,0-91.2107544-73.9417419-165.1520233-165.1529388-165.1520233S.0136553,147.2650299.0136553,238.475769c0,30.0922241,8.0882063,58.2785034,22.1498022,82.5760193,28.5600491-49.3499451,81.8837185-82.5760193,143.0031261-82.5760193h.0000153Z"/>
    <path class="st2" d="M116.1840931,136.7290802c-2.3612289-.000061-4.0029526-2.3500214-3.1993637-4.5702972,8.8418732-24.429924,13.904541-44.7003479,15.5608063-56.2814484,1.6065826-9.108078,2.8048096-18.4187546,3.7503815-27.7787399.4735107-4.687233-3.221817-8.7552834-7.9329071-8.7552834h-35.163475c-28.6450806,0-63.154007.6170387-82.4120331,2.4293327-2.4373732.2293701-4.7178488-1.1822205-5.6483545-3.4466324-.4850913-1.1804848-.852754-2.387352-1.0702047-3.6279602-.3983094-2.2724457,1.420734-4.3258991,3.719207-4.1266918,21.0817859,1.8271389,56.6652458,2.4483891,85.4113853,2.4483891l163.9848099-.0000687c5.1053772-.0000038,9.9066162-2.4379883,12.9288635-6.5526886C283.367725,2.9757161,286.8723636,0,289.7841678,0c4.2166138,0,8.0793457,2.1069529,20.7264709,12.6444197,17.9144897,14.7540751,19.6702881,17.9172029,19.6702881,21.428792,0,3.5142899-2.1069641,5.2700844-8.7816772,5.2700844l-106.972168.0001831c-6.6305542.0000114-13.1386566,1.7863617-18.8401184,5.1712646l-1.5966034.9478836c-5.9501648,3.532547-10.8942871,8.5192223-14.3791809,14.4974174-12.7623138,21.8932724-32.3052216,53.7417526-61.310257,76.0529556-.6050491.4654083-1.3534927.7160797-2.1168365.7160797h-.0000076.0000153Z"/>
  </g>
  <g>
    <path class="st2" d="M435.697681,297.9232178c.1445007.1249084.2179871.3135071.2179871.563324,0,.4188232-.1469727.6711121-.4384155.7543945l-7.4605408,1.1903687-.3771973.0636902c-.6686707,0-1.0042114-.4188232-1.0042114-1.2540283v-1.8198242c0-.7102966-.2302246-1.0654297-.6882629-1.0654297-.2939148,0-.5853882.1665649-.879303.5021057-2.4664307,2.5497131-5.2880249,3.8233337-8.4647522,3.8233337-3.5955505,0-6.1550598-.9184875-7.6809692-2.7579041s-2.2876282-4.0952148-2.2876282-6.7722778l-.0636902-14.6100159c0-.8768311-.1983948-1.523468-.5951843-1.9422913s-.8890991-.6907043-1.4720154-.8156128c-.5878296-.1249084-1.4646606-.2498169-2.635437-.3771973-.2914734-.0391846-.4702759-.1347046-.5314941-.2816772-.0636902-.1445007-.09552-.3233032-.09552-.5314941,0-.4604797.1273499-.7323303.3771973-.8156128.7935791-.2522888,1.9545288-.5657959,3.4804382-.9405212,1.5259094-.3771973,3.019989-.7323303,4.4822083-1.0654297.1249084-.041626.2718811-.0636902.4384155-.0636902.6686707,0,1.0042114.3967896,1.0042114,1.1903687v7.837738c0,6.7722778.0195923,10.6593018.0636902,11.6635132.0832825,1.922699.6147766,3.6053467,1.5969238,5.0479736s2.6231995,2.1627197,4.9230652,2.1627197c1.5455017,0,3.061615-.3967896,4.5458679-1.1903687s2.7677002-2.0084229,3.8551941-3.637207c.3355408-.5021057.5021057-1.0458374.5021057-1.6312256l-.2498169-14.5463257c0-.8768311-.1983948-1.5259094-.5951843-1.9447327-.399231-.4163818-.8695068-.6882629-1.4107971-.8131714-.5437317-.1273499-1.442627-.2718811-2.6966553-.4408569-.3771973-.0391846-.5657959-.3747559-.5657959-1.00177,0-.2914734.1273499-.480072.3771973-.5657959.7935791-.2498169,1.9545288-.563324,3.4804382-.9405212,1.5259094-.3747559,2.9979248-.7298889,4.4209595-1.0654297.1249084-.041626.2694092-.0612183.4384155-.0612183.6686707,0,1.00177.3967896,1.00177,1.1903687l.1273499,23.8266907c0,1.5479431.8352051,2.4884644,2.5080872,2.8215942.4996643.0832825.9405212.1249084,1.3152771.1249084.5437317,0,.8890991.0636902,1.0360413.1885986l.0000305-.000061Z"/>
    <path class="st2" d="M447.3489261,299.2090759c-1.2319946-1.1928101-1.8492126-3.019989-1.8492126-5.4864197v-20.0645752c0-.4188232-.1151123-.7421265-.3453369-.9723816s-.5535278-.3453369-.9699097-.3453369h-2.4468384c-.4188232,0-.7421265-.1028748-.9723816-.3135071-.2302246-.2081909-.3428955-.5021057-.3428955-.8768311,0-.6686707.3526917-1.1707458,1.0654297-1.5063171,1.8394165-.7102966,3.2796021-1.8492126,4.3254395-3.416748s1.9031067-4.0437622,2.5717468-7.4286804c.2081909-.8376465.521698-1.2540283.9405212-1.2540283.4580078,0,.6882629.4384155.6882629,1.3152771v9.843689c0,.4188232.1151123.7445984.3453369.9723816.2302246.2302246.5535278.3453369.9723816.3453369h5.5794678c.879303,0,1.3177185.3771973,1.3177185,1.1291199,0,.3747559-.1151123.6686707-.3453369.8768311-.2302246.2106323-.5535278.3135071-.9723816.3135071h-5.643158c-.4163818,0-.7421265.1151123-.9699097.3453369-.2302246.2302246-.3453369.5535278-.3453369.9723816v14.04422l.0612183,5.643158c.041626,1.4230347.4408569,2.5619507,1.1928101,3.416748.7519226.8572388,1.7120667,1.2858887,2.8828125,1.2858887.9625854,0,1.7463379-.1445007,2.3513184-.4384155.6074219-.2914734,1.2026062-.7739868,1.7879944-1.442627.2081909-.2498169.4163818-.3747559.6270142-.3747559.2081909,0,.4065857.1028748.5951843.3135071.1885986.2081909.2816772.4163818.2816772.6270142,0,.1665649-.041626.3135071-.1249084.4384155-1.6728516,2.5497131-3.9923401,3.8233337-6.9584351,3.8233337-2.2998962,0-4.0658264-.5951843-5.3002625-1.7855225h-.0000305Z"/>
    <path class="st2" d="M499.07793,297.9232178c.1445007.1249084.2179871.3135071.2179871.563324,0,.4188232-.1469727.6711121-.4384155.7543945l-7.4605408,1.1903687-.3771973.0636902c-.6686707,0-1.0042114-.4188232-1.0042114-1.2540283v-1.8198242c0-.7102966-.2302246-1.0654297-.6882629-1.0654297-.2939148,0-.5853882.1665649-.879303.5021057-2.4664307,2.5497131-5.2880249,3.8233337-8.4647522,3.8233337-3.5955505,0-6.1550598-.9184875-7.6809692-2.7579041s-2.2876282-4.0952148-2.2876282-6.7722778l-.0636902-14.6100159c0-.8768311-.1983948-1.523468-.5951843-1.9422913s-.8890991-.6907043-1.4720154-.8156128c-.5878296-.1249084-1.4646606-.2498169-2.635437-.3771973-.2914734-.0391846-.4702759-.1347046-.5314941-.2816772-.0636902-.1445007-.09552-.3233032-.09552-.5314941,0-.4604797.1273499-.7323303.3771973-.8156128.7935791-.2522888,1.9545288-.5657959,3.4804382-.9405212,1.5259094-.3771973,3.019989-.7323303,4.4822083-1.0654297.1249084-.041626.2718811-.0636902.4384155-.0636902.6686707,0,1.0042114.3967896,1.0042114,1.1903687v7.837738c0,6.7722778.0195923,10.6593018.0636902,11.6635132.0832825,1.922699.6147766,3.6053467,1.5969238,5.0479736s2.6231995,2.1627197,4.9230652,2.1627197c1.5455017,0,3.061615-.3967896,4.5458679-1.1903687s2.7677002-2.0084229,3.8551941-3.637207c.3355408-.5021057.5021057-1.0458374.5021057-1.6312256l-.2498169-14.5463257c0-.8768311-.1983948-1.5259094-.5951843-1.9447327-.399231-.4163818-.8695068-.6882629-1.4107971-.8131714-.5437317-.1273499-1.442627-.2718811-2.6966553-.4408569-.3771973-.0391846-.5657959-.3747559-.5657959-1.00177,0-.2914734.1273499-.480072.3771973-.5657959.7935791-.2498169,1.9545288-.563324,3.4804382-.9405212,1.5259094-.3747559,2.9979248-.7298889,4.4209595-1.0654297.1249084-.041626.2694092-.0612183.4384155-.0612183.6686707,0,1.00177.3967896,1.00177,1.1903687l.1273499,23.8266907c0,1.5479431.8352051,2.4884644,2.5080872,2.8215942.4996643.0832825.9405212.1249084,1.3152771.1249084.5437317,0,.8890991.0636902,1.0360413.1885986l.0000305-.000061Z"/>
    <path class="st2" d="M528.4880253,271.4317017c1.9422607,1.3177185,3.500061,3.1253052,4.6707764,5.4227295,1.1707764,2.2998962,1.7561646,4.8716431,1.7561646,7.7127991,0,3.0101624-.6074219,5.7680664-1.8198242,8.2761536s-2.8215942,4.4944458-4.8275757,5.956665c-2.0059814,1.4646606-4.1368408,2.1945496-6.3950806,2.1945496-3.3848877,0-6.3754883-1.085022-8.9668579-3.2600098-.3355713-.2498169-.6270142-.3747559-.8768311-.3747559-.3771973,0-.6907043.2081909-.9405212.6270142l-1.6312256,2.7579041c-.1249084.1665649-.2498169.2498169-.3747559.2498169l-.3771973-.0612183c-.1665649-.041626-.3037109-.1053162-.4065857-.1885986-.1053162-.0832825-.1567688-.1885986-.1567688-.3135071l-.1273499-39.2523193c0-.8768311-.1983948-1.523468-.5951843-1.9422913s-.8670349-.6907043-1.4107971-.8156128-1.442627-.2718811-2.6966553-.4384155c-.2914734-.041626-.4702759-.1053162-.5314941-.1885986-.0636902-.0832825-.09552-.2498169-.09552-.5021057v-.2498169c0-.3355408.1273499-.5437317.3771973-.6270142.8352051-.2522888,2.0280151-.5657806,3.5735168-.9405212,1.5455017-.3771973,3.0518188-.7323303,4.5140381-1.0654449.0832825-.0416412.2302246-.0636749.4408569-.0636749.6662292,0,1.0017395.3967896,1.0017395,1.1903534v15.8028107c0,.5437317.09552.9184875.2816772,1.1266785.1885986.2106323.4286499.2106323.7225342,0,2.5496826-2.0059814,5.4129028-3.0077209,8.5896606-3.0077209,2.2582397,0,4.3572998.6564026,6.302002,1.9741211l.000061.0000305ZM524.9438968,296.6054993c1.4205933-1.00177,2.5619507-2.5178833,3.4191895-4.5458679.8547974-2.0255737,1.2834473-4.5238342,1.2834473-7.4923706,0-3.5098267-.6368408-6.1844482-1.9104614-8.0263062-1.276062-1.8369751-2.635437-3.0077209-4.0756226-3.5098267-1.442627-.5021057-2.664856-.7519226-3.6690063-.7519226-1.1291504,0-2.2876587.2400208-3.4804688.7200928-1.1903687.480072-2.2680664,1.138916-3.2281494,1.9741211-.4604492.4188232-.6906738.9405212-.6906738,1.5675354v17.5565186c0,.712738.3355713,1.2981262,1.0042114,1.756134,1.043396.712738,2.1725464,1.2662964,3.3848877,1.6630554s2.319458.5951843,3.3236694.5951843c1.6704102,0,3.2183838-.5021057,4.6389771-1.5063171v-.0000305Z"/>
    <path class="st2" d="M548.348621,298.64328c-2.2362061-1.5675354-3.9506836-3.5612793-5.1410522-5.9860535-1.1928101-2.4248047-1.7879639-4.8912354-1.7879639-7.399292,0-2.6746216.5853882-5.2243347,1.7561646-7.6491394s2.8730469-4.3891296,5.1091919-5.8954468c2.2362061-1.5038757,4.859375-2.2557983,7.8695679-2.2557983s5.6431885.7519226,7.9014282,2.2557983c2.2557983,1.5063171,3.9801025,3.4706421,5.1729126,5.8954468,1.1903687,2.4248047,1.7855225,4.9745178,1.7855225,7.6491394,0,2.5080872-.5951538,4.9745178-1.7855225,7.399292-1.1928101,2.4248047-2.9171143,4.4185181-5.1729126,5.9860535-2.2582397,1.5675354-4.8912354,2.3513184-7.9014282,2.3513184-2.9685669,0-5.5697021-.783783-7.8059082-2.3513184ZM563.2083622,294.9448547c1.7340698-2.5717468,2.6035767-5.7999268,2.6035767-9.6869507,0-4.0976562-.8572388-7.3894958-2.5717773-9.8755493s-4.0756226-3.7302551-7.0858154-3.7302551c-2.9685669,0-5.3076172,1.2540283-7.0220947,3.7621155s-2.5717773,5.7901306-2.5717773,9.843689c0,2.5080872.3869629,4.7957153,1.1609497,6.8653564s1.8810425,3.6984253,3.3236694,4.8912354c1.442627,1.1903687,3.1448975,1.7855225,5.1091919,1.7855225,2.9685669,0,5.3198853-1.2834167,7.0539551-3.8551941l.0001221.0000305Z"/>
    <path class="st2" d="M605.735767,270.0209045c.2914429,0,.4384155.2939148.4384155.8768311,0,.5878296-.1469727.879303-.4384155.879303-2.3414917,0-4.0535889,1.1291199-5.1410522,3.3849182-.7935791,1.6312256-4.8275757,11.5802307-12.1019287,29.8470459-1.7561646,3.9286499-3.541687,6.478363-5.3615112,7.6491394-1.8173828,1.1707458-3.6886597,1.756134-5.6113281,1.756134-1.1291504,0-2.0696411-.2522888-2.8215942-.7519226-.7519531-.5021057-1.1291504-1.1291199-1.1291504-1.8810425,0-.7960205.2400513-1.442627.7225342-1.9447327.4800415-.5021057,1.1585083-.7519226,2.0377808-.7519226.7102661,0,1.4818115.1665649,2.319458.5021057.6686401.2914734,1.317688.4384155,1.9447632.4384155.8768311,0,1.8173828-.4702759,2.8215942-1.4107971,1.00177-.9405212,1.8369751-2.1431274,2.5080566-3.6053467l1.6924438-4.1393127c.124939-.2914734.1885986-.5853882.1885986-.8768311s-.0636597-.5853882-.1885986-.879303l-10.4094849-24.7035217c-.5020752-1.1291199-1.0874634-1.8492126-1.7561646-2.1627197s-1.5871582-.4702759-2.7578735-.4702759c-.2938843,0-.4384155-.2914734-.4384155-.879303,0-.5829163.1445312-.8768311.4384155-.8768311h13.9193115c.3355713,0,.5020752.2939148.5020752.8768311,0,.5878296-.1665649.879303-.5020752.879303-1.3373413,0-2.4345703.1885986-3.2918701.563324-.8572388.3771973-1.2858887.8988953-1.2858887,1.5675354,0,.2106323.0636597.4825134.1885986.8156128l7.1494751,17.5565186c.083252.2498169.2081909.4506836.3747559.5951843.1665649.1469727.3355713.2204285.5020752.2204285.3331299,0,.6270142-.2914734.8768311-.879303,1.5895996-3.7621155,3.0003662-7.1886597,4.2323608-10.2821045,1.234436-3.0934448,2.1210938-5.3492432,2.664856-6.7722778.083252-.2081909.1273804-.480072.1273804-.8156128,0-.8352051-.4824829-1.4720154-1.442627-1.9104309-.9625854-.4408569-2.0500488-.658844-3.2600098-.658844-.2938843,0-.4408569-.2914734-.4408569-.879303,0-.2914734.0318604-.5094604.09552-.6564026.0612183-.1469727.1763306-.2204285.3453369-.2204285h12.2880859l.0001221-.000061Z"/>
    <path class="st2" d="M637.9491459,295.5400391l-.0612183.3771973c-.6270142,1.7977905-1.5675659,3.0714111-2.8215942,3.8233337-1.2540283.7543945-2.4468384,1.1291199-3.5734863,1.1291199-1.0458374,0-1.9447632-.2718811-2.6966553-.8156128-.7519531-.5412903-1.3397827-1.2932129-1.7561646-2.2557983-.2498169-.5021057-.5020752-.7519226-.7519531-.7519226-.1690063,0-.4188232.1249084-.7519531.3747559-1.4230347,1.1707458-3.0223999,2.059845-4.7981567,2.6648254s-3.5220947.9086914-5.2341309.9086914c-2.4248047,0-4.3793335-.563324-5.8635864-1.6924438s-2.2263794-2.6746216-2.2263794-4.6389465c0-1.5455017.3355713-2.8852539,1.0042114-4.0143738.6686401-1.1266785,1.7561646-2.1308899,3.2600098-3.0077209.918457-.5437317,2.0794678-1.0360413,3.4804688-1.4744873,1.3985596-.4384155,3.3334961-.9919739,5.7999268-1.660614,2.2141724-.5853882,3.6763916-.9821777,4.3890991-1.1928101.7519531-.2081909,1.1291504-.6882629,1.1291504-1.442627v-1.5675354c0-2.0059814-.1053467-3.487793-.3135376-4.4503479-.2106323-.9625854-.6270142-1.8198242-1.2540283-2.5717468-.9209595-1.1291199-2.4884644-1.6924438-4.7026367-1.6924438-1.5479736,0-2.718689.3771973-3.5122681,1.1291199s-1.4646606,1.9031067-2.0059814,3.4486084c-.7127686,2.0059814-1.7365723,3.0101624-3.0738525,3.0101624-.7519531,0-1.4303589-.2400208-2.0377808-.7225342-.6049805-.480072-.9086914-1.1168823-.9086914-1.9129028,0-.7935791.2816772-1.7243042.8474731-2.7897339.5633545-1.0654297,1.7120361-2.0476074,3.4486084-2.9465027,1.7340698-.8988953,4.2103271-1.3471069,7.4287109-1.3471069,1.8810425,0,3.6690063.3233032,5.3615112.9699097,1.6924438.6490479,2.8950806,1.4548645,3.6053467,2.4150085.6270142.8768311,1.0556641,1.7879944,1.2858887,2.7285156s.3453369,2.0574036.3453369,3.3530884c0,1.9667664-.0220337,3.7008667-.0636597,5.2047424l-.0612183,9.0917664c0,1.7145081.3233032,2.8632202.9699097,3.4486084.6490479.5853882,1.2858887.8768311,1.9129028.8768311.5437622,0,1.1193237-.1763611,1.7243042-.5314941s1.1193237-.8890991,1.5357056-1.5993958c.1273804-.2081909.2718506-.3135071.4408569-.3135071.3331299,0,.4996338.1469421.4996338.4384155l-.0001221-.0000916ZM621.8670536,297.1394348c1.401001-.563324,2.664856-1.3887329,3.7939453-2.4762268.4163818-.4604797.6270142-.7323303.6270142-.8156128v-.0636902l.124939-6.8971863c0-.4996643-.137146-.8547974-.4065552-1.0654297-.274292-.2081909-.6392822-.2498169-1.09729-.1249084-4.3058472,1.0874939-7.453186,2.2043457-9.4371338,3.3555298-1.9863892,1.1487122-2.9783325,2.7260742-2.9783325,4.7320251,0,1.1707458.4065552,2.1651611,1.222168,2.9783325.8156128.8156128,2.1627197,1.2246399,4.0437622,1.2246399,1.3373413,0,2.7064819-.2841187,4.1074829-.8474426v-.0000305Z"/>
    <path class="st2" d="M718.2942386,298.4253235c.3355713,0,.5020752.2914734.5020752.8768311,0,.5437317-.1665649.8156128-.5020752.8156128h-14.0442505c-.2938843,0-.4384155-.2718811-.4384155-.8156128,0-.2914734.0318604-.5119019.0930786-.658844.0636597-.1445007.178772-.2179871.3453369-.2179871h.8156128c1.2124023,0,2.182312-.1665649,2.9146729-.5021057.7323608-.3330994,1.09729-1.043396,1.09729-2.1308899v-8.5284119c0-2.9685364-.041626-5.3296509-.124939-7.0857849-.1665649-5.0994263-2.319458-7.6491394-6.4588013-7.6491394-1.6287842,0-3.1963501.4188232-4.7026367,1.2540283-1.5038452.8376465-2.8215942,2.1112976-3.9506836,3.8257751-.2914429.4163818-.4384155.7739868-.4384155,1.0654297v.3135071c.041626.6686707.0636597,1.964325.0636597,3.8870239,0,3.4706421-.0857544,7.7740479-.2522583,12.9175415,0,1.043396.3771973,1.7438965,1.1291504,2.0990295s1.7340698.5339355,2.9464722.5339355h.8156128c.2914429,0,.4384155.2914734.4384155.8768311,0,.5437317-.1469727.8156128-.4384155.8156128h-14.0442505c-.3355713,0-.5020752-.2718811-.5020752-.8156128,0-.5853882.1665649-.8768311.5020752-.8768311h.8156128c1.2099609,0,2.182312-.1665649,2.9146729-.5021057.7298584-.3330994,1.09729-1.043396,1.09729-2.1308899v-8.2149048c0-3.1767273-.041626-5.643158-.124939-7.399292-.1690063-5.0994263-2.319458-7.6491394-6.4588013-7.6491394-1.6312256,0-3.1889648.4065857-4.6707764,1.2221985-1.4842529.8156128-2.7897339,2.059845-3.9188843,3.7302551-.2938843.5437317-.4384155,1.0874939-.4384155,1.6312256l-.0636597,16.679657c0,1.043396.3771973,1.7438965,1.1291504,2.0990295s1.7340698.5339355,2.9464722.5339355h.8156128c.3331299,0,.5020752.2914734.5020752.8768311,0,.5437317-.1690063.8156128-.5020752.8156128h-14.0466919c-.2914429,0-.4384155-.2718811-.4384155-.8156128,0-.2914734.0318604-.5119019.09552-.658844.0612183-.1445007.1763306-.2179871.3428955-.2179871h.8156128c1.2124023,0,2.1945801-.1788025,2.9464722-.5339355.7543945-.3551331,1.1291504-1.0556335,1.1291504-2.0990295l-.2498169-19.124054c0-.879303-.1983643-1.5259094-.5951538-1.9447327-.399231-.4163818-.8792725-.6907043-1.442627-.8156128-.5657959-.1249084-1.4524536-.2718811-2.664856-.4384155-.3771973-.041626-.5657959-.3771973-.5657959-1.0042114,0-.2914734.1053467-.480072.3135376-.563324.8376465-.2498169,2.0280151-.5731201,3.5759888-.9723816,1.5454712-.3967896,3.0493774-.7617188,4.5140381-1.09729.124939-.041626.2718506-.0612183.4384155-.0612183.6686401,0,1.0042114.3967896,1.0042114,1.1903687v1.756134c0,.7102966.2081909,1.0654297.6270142,1.0654297.2498169,0,.5633545-.1885986.9405518-.563324,2.3807373-2.5080872,5.1606445-3.7621155,8.3374023-3.7621155,2.2582397,0,4.1392822.4604797,5.6431885,1.3789368,1.5062866.9184875,2.6550293,2.1529236,3.4486084,3.6984253.1665649.4604797.3967896.6907043.6906738.6907043.2498169,0,.5217285-.1665649.8156128-.5021057,2.6746216-3.5122681,5.8709717-5.2659607,9.5938721-5.2659607,3.2600098,0,5.7460327.9184875,7.4605103,2.7579041s2.6329956,4.0976562,2.7578735,6.7722778c.041626.6686707.0636597,1.964325.0636597,3.8870239,0,3.4706421-.083252,7.7740479-.2498169,12.9175415,0,1.043396.3747559,1.7438965,1.1266479,2.0990295.7543945.3551331,1.7340698.5339355,2.9489746.5339355h.8131714v.0000916Z"/>
    <path class="st2" d="M727.9130131,298.64328c-2.2362061-1.5675354-3.9506836-3.5612793-5.1410522-5.9860535-1.1928101-2.4248047-1.7879639-4.8912354-1.7879639-7.399292,0-2.6746216.5853882-5.2243347,1.7561646-7.6491394s2.8730469-4.3891296,5.1091919-5.8954468c2.2362061-1.5038757,4.859375-2.2557983,7.8695679-2.2557983s5.6431885.7519226,7.9014282,2.2557983c2.2557983,1.5063171,3.9801025,3.4706421,5.1729126,5.8954468,1.1903687,2.4248047,1.7855225,4.9745178,1.7855225,7.6491394,0,2.5080872-.5951538,4.9745178-1.7855225,7.399292-1.1928101,2.4248047-2.9171143,4.4185181-5.1729126,5.9860535-2.2582397,1.5675354-4.8912354,2.3513184-7.9014282,2.3513184-2.9685669,0-5.5697021-.783783-7.8059082-2.3513184ZM742.7729374,294.9448547c1.7340698-2.5717468,2.6035767-5.7999268,2.6035767-9.6869507,0-4.0976562-.8572388-7.3894958-2.5717773-9.8755493s-4.0756226-3.7302551-7.0858154-3.7302551c-2.9685669,0-5.3076172,1.2540283-7.0220947,3.7621155s-2.5717773,5.7901306-2.5717773,9.843689c0,2.5080872.3869629,4.7957153,1.1609497,6.8653564s1.8810425,3.6984253,3.3236694,4.8912354c1.442627,1.1903687,3.1448975,1.7855225,5.1091919,1.7855225,2.9685669,0,5.3198853-1.2834167,7.0539551-3.8551941l.0001221.0000305Z"/>
    <path class="st2" d="M809.5988041,298.4253235c.3355713,0,.5020752.2914734.5020752.8768311,0,.5437317-.1665649.8156128-.5020752.8156128h-14.0442505c-.2938843,0-.4384155-.2718811-.4384155-.8156128,0-.2914734.0318604-.5119019.0930786-.658844.0636597-.1445007.178772-.2179871.3453369-.2179871h.8156128c1.2124023,0,2.182312-.1665649,2.9146729-.5021057.7323608-.3330994,1.09729-1.043396,1.09729-2.1308899v-8.5284119c0-2.9685364-.041626-5.3296509-.124939-7.0857849-.1665649-5.0994263-2.319458-7.6491394-6.4588013-7.6491394-1.6287842,0-3.1963501.4188232-4.7026367,1.2540283-1.5038452.8376465-2.8215942,2.1112976-3.9506836,3.8257751-.2914429.4163818-.4384155.7739868-.4384155,1.0654297v.3135071c.041626.6686707.0636597,1.964325.0636597,3.8870239,0,3.4706421-.0857544,7.7740479-.2522583,12.9175415,0,1.043396.3771973,1.7438965,1.1291504,2.0990295s1.7340698.5339355,2.9464722.5339355h.8156128c.2914429,0,.4384155.2914734.4384155.8768311,0,.5437317-.1469727.8156128-.4384155.8156128h-14.0442505c-.3355713,0-.5020752-.2718811-.5020752-.8156128,0-.5853882.1665649-.8768311.5020752-.8768311h.8156128c1.2099609,0,2.182312-.1665649,2.9146729-.5021057.7298584-.3330994,1.09729-1.043396,1.09729-2.1308899v-8.2149048c0-3.1767273-.041626-5.643158-.124939-7.399292-.1690063-5.0994263-2.319458-7.6491394-6.4588013-7.6491394-1.6312256,0-3.1889648.4065857-4.6707764,1.2221985-1.4842529.8156128-2.7897339,2.059845-3.9188843,3.7302551-.2938843.5437317-.4384155,1.0874939-.4384155,1.6312256l-.0636597,16.679657c0,1.043396.3771973,1.7438965,1.1291504,2.0990295s1.7340698.5339355,2.9464722.5339355h.8156128c.3331299,0,.5020752.2914734.5020752.8768311,0,.5437317-.1690063.8156128-.5020752.8156128h-14.0466919c-.2914429,0-.4384155-.2718811-.4384155-.8156128,0-.2914734.0318604-.5119019.09552-.658844.0612183-.1445007.1763306-.2179871.3428955-.2179871h.8156128c1.2124023,0,2.1945801-.1788025,2.9464722-.5339355.7543945-.3551331,1.1291504-1.0556335,1.1291504-2.0990295l-.2498169-19.124054c0-.879303-.1983643-1.5259094-.5951538-1.9447327-.399231-.4163818-.8792725-.6907043-1.442627-.8156128-.5657959-.1249084-1.4524536-.2718811-2.664856-.4384155-.3771973-.041626-.5657959-.3771973-.5657959-1.0042114,0-.2914734.1053467-.480072.3135376-.563324.8376465-.2498169,2.0280151-.5731201,3.5759888-.9723816,1.5454712-.3967896,3.0493774-.7617188,4.5140381-1.09729.124939-.041626.2718506-.0612183.4384155-.0612183.6686401,0,1.0042114.3967896,1.0042114,1.1903687v1.756134c0,.7102966.2081909,1.0654297.6270142,1.0654297.2498169,0,.5633545-.1885986.9405518-.563324,2.3807373-2.5080872,5.1606445-3.7621155,8.3374023-3.7621155,2.2582397,0,4.1392822.4604797,5.6431885,1.3789368,1.5062866.9184875,2.6550293,2.1529236,3.4486084,3.6984253.1665649.4604797.3967896.6907043.6906738.6907043.2498169,0,.5217285-.1665649.8156128-.5021057,2.6746216-3.5122681,5.8709717-5.2659607,9.5938721-5.2659607,3.2600098,0,5.7460327.9184875,7.4605103,2.7579041s2.6329956,4.0976562,2.7578735,6.7722778c.041626.6686707.0636597,1.964325.0636597,3.8870239,0,3.4706421-.083252,7.7740479-.2498169,12.9175415,0,1.043396.3747559,1.7438965,1.1266479,2.0990295.7543945.3551331,1.7340698.5339355,2.9489746.5339355h.8131714v.0000916Z"/>
    <path class="st2" d="M819.2177006,298.64328c-2.2362061-1.5675354-3.9506836-3.5612793-5.1410522-5.9860535-1.1928101-2.4248047-1.7879639-4.8912354-1.7879639-7.399292,0-2.6746216.5853882-5.2243347,1.7561646-7.6491394s2.8730469-4.3891296,5.1091919-5.8954468c2.2362061-1.5038757,4.859375-2.2557983,7.8695679-2.2557983s5.6431885.7519226,7.9014282,2.2557983c2.2557983,1.5063171,3.9801025,3.4706421,5.1729126,5.8954468,1.1903687,2.4248047,1.7855225,4.9745178,1.7855225,7.6491394,0,2.5080872-.5951538,4.9745178-1.7855225,7.399292-1.1928101,2.4248047-2.9171143,4.4185181-5.1729126,5.9860535-2.2582397,1.5675354-4.8912354,2.3513184-7.9014282,2.3513184-2.9685669,0-5.5697021-.783783-7.8059082-2.3513184ZM834.0774418,294.9448547c1.7340698-2.5717468,2.6035767-5.7999268,2.6035767-9.6869507,0-4.0976562-.8572388-7.3894958-2.5717773-9.8755493s-4.0756226-3.7302551-7.0858154-3.7302551c-2.9685669,0-5.3076172,1.2540283-7.0220947,3.7621155s-2.5717773,5.7901306-2.5717773,9.843689c0,2.5080872.3869629,4.7957153,1.1609497,6.8653564s1.8810425,3.6984253,3.3236694,4.8912354c1.442627,1.1903687,3.1448975,1.7855225,5.1091919,1.7855225,2.9685669,0,5.3198853-1.2834167,7.0539551-3.8551941l.0001221.0000305Z"/>
  </g>
  <path class="st1" d="M330.3268382,403.5999222c0,91.2646588-73.9709791,165.1597824-165.1602394,165.1597824S.0063595,494.864581.0063595,403.5999222c0-30.0968062,8.0863775-58.2474165,22.1607687-82.5796627,28.6002597-49.3385096,81.9074735-82.5801197,142.9994706-82.5801197,61.1669387,0,114.4741525,33.2416101,142.9976428,82.5801197,14.0762191,24.3322462,22.1625966,52.4828566,22.1625966,82.5796627Z"/>
</svg>